<svg width="118" height="118" viewBox="0 0 118 118" fill="none" xmlns="http://www.w3.org/2000/svg">
<g filter="url(#filter0_d)">
<circle cx="59" cy="55" r="55" fill="white"/>
<path d="M58.5 20.125V88.875" stroke="#FF0000" stroke-width="2" stroke-linecap="round" stroke-linejoin="round"/>
<path d="M74.125 32.625H50.6875C47.7867 32.625 45.0047 33.7773 42.9535 35.8285C40.9023 37.8797 39.75 40.6617 39.75 43.5625C39.75 46.4633 40.9023 49.2453 42.9535 51.2965C45.0047 53.3477 47.7867 54.5 50.6875 54.5H66.3125C69.2133 54.5 71.9953 55.6523 74.0465 57.7035C76.0977 59.7547 77.25 62.5367 77.25 65.4375C77.25 68.3383 76.0977 71.1203 74.0465 73.1715C71.9953 75.2227 69.2133 76.375 66.3125 76.375H39.75" stroke="#FF0000" stroke-width="2" stroke-linecap="round" stroke-linejoin="round"/>
</g>
<defs>
<filter id="filter0_d" x="0" y="0" width="118" height="118" filterUnits="userSpaceOnUse" color-interpolation-filters="sRGB">
<feFlood flood-opacity="0" result="BackgroundImageFix"/>
<feColorMatrix in="SourceAlpha" type="matrix" values="0 0 0 0 0 0 0 0 0 0 0 0 0 0 0 0 0 0 127 0"/>
<feOffset dy="4"/>
<feGaussianBlur stdDeviation="2"/>
<feColorMatrix type="matrix" values="0 0 0 0 0 0 0 0 0 0 0 0 0 0 0 0 0 0 0.25 0"/>
<feBlend mode="normal" in2="BackgroundImageFix" result="effect1_dropShadow"/>
<feBlend mode="normal" in="SourceGraphic" in2="effect1_dropShadow" result="shape"/>
</filter>
</defs>
</svg>
