<svg width="62" height="62" viewBox="0 0 62 62" fill="none" xmlns="http://www.w3.org/2000/svg">
<path d="M38.0703 16.4624H23.6654C19.6876 16.4624 16.4629 19.6871 16.4629 23.6649V38.0698C16.4629 42.0477 19.6876 45.2723 23.6654 45.2723H38.0703C42.0482 45.2723 45.2728 42.0477 45.2728 38.0698V23.6649C45.2728 19.6871 42.0482 16.4624 38.0703 16.4624Z" stroke="#FF0000" stroke-width="2" stroke-linecap="round" stroke-linejoin="round"/>
<path d="M36.6296 29.9598C36.8074 31.1586 36.6026 32.383 36.0444 33.4588C35.4862 34.5345 34.603 35.4069 33.5205 35.9518C32.4379 36.4966 31.2111 36.6863 30.0146 36.4938C28.818 36.3012 27.7126 35.7363 26.8556 34.8793C25.9986 34.0223 25.4337 32.9169 25.2412 31.7204C25.0486 30.5238 25.2383 29.297 25.7832 28.2144C26.328 27.1319 27.2004 26.2487 28.2762 25.6905C29.3519 25.1323 30.5763 24.9275 31.7751 25.1053C32.998 25.2866 34.1301 25.8565 35.0043 26.7306C35.8785 27.6048 36.4483 28.7369 36.6296 29.9598Z" stroke="#FF0000" stroke-width="2" stroke-linecap="round" stroke-linejoin="round"/>
<path d="M38.7905 22.9448H38.8051" stroke="#FF0000" stroke-width="2" stroke-linecap="round" stroke-linejoin="round"/>
<circle cx="30.8678" cy="30.8678" r="28.3678" stroke="#FF0000" stroke-width="5"/>
</svg>
