<svg width="1110" height="348" viewBox="0 0 1110 348" fill="none" xmlns="http://www.w3.org/2000/svg">
<rect width="1110" height="348" rx="50" fill="#EAFFEB"/>
<mask id="mask0" mask-type="alpha" maskUnits="userSpaceOnUse" x="0" y="0" width="1110" height="348">
<rect width="1110" height="348" rx="50" fill="#EAFFEB"/>
</mask>
<g mask="url(#mask0)">
<path fill-rule="evenodd" clip-rule="evenodd" d="M1040.35 379.985C1040.91 378.67 1041.46 377.355 1042.02 376.041C1042.72 378.333 1042.91 379.473 1040.35 379.985ZM1041.09 386.059C1039.88 386.276 1040.36 382.471 1040.36 381.808C1042.45 382.994 1040.72 384.416 1041.09 386.059ZM1039.2 375.082C1040.23 374.471 1041.27 373.861 1042.3 373.25C1040.86 375.918 1041.43 374.251 1042.02 376.033C1040.94 376.345 1039.88 375.981 1039.2 375.082ZM1033.07 395.934C1029.2 409.997 1016.89 421.088 1003.88 426.833C996.411 430.133 989.065 430.959 980.996 430.591C977.884 430.449 974.222 429.438 971.227 429.626C968.921 429.771 969.025 429.871 967.115 431.823C966.27 430.267 966.882 429.175 965.187 428.269C963.072 427.139 962.194 428.455 961.145 430.02C959.772 428.597 959.21 427.854 957.431 427.009C957.487 427.036 955.728 426.969 955.8 426.991C955.482 426.893 953.569 425.663 952.97 425.439C950.512 424.517 947.67 424.138 945.402 422.815C943.418 421.66 941.784 418.417 939.514 420.909C939.512 416.745 933.903 415.018 931.274 412.837C927.166 409.429 923.9 404.383 921.852 399.502C919.668 394.297 918.939 389.307 917.917 383.943C917.203 380.195 912.527 374.777 915.335 370.995C916.004 372.581 915.69 374.205 916.801 375.643C917.801 373.716 918.351 371.56 918.803 369.451C919.025 368.418 920.311 365.386 920.165 364.486C919.868 362.644 917.588 362.544 918.852 360.286C921.474 363.139 923.59 358.129 921.609 356.132C920.631 357.235 920.272 358.488 919.821 359.854C917.243 354.65 924.378 356.326 922.817 351.628C925.421 351.127 926.918 350.471 927.908 347.898C929.009 345.035 928.199 344.411 930.699 342.519C931.559 341.869 933.991 340.934 934.436 339.864C935.297 337.797 933.106 337.184 935.025 335.247C935.673 336.384 938.199 338.635 939.582 336.493C939.859 336.066 938.696 335.763 939.542 334.779C940.795 333.323 942.197 331.895 944.316 332.201C942.638 328.006 953.36 327.674 956.106 326.684C958.858 325.693 961.193 325.042 964.111 324.812C967.026 324.582 967.171 323.728 969.639 321.973C969.848 324.484 970.452 323.932 972.237 324.375C972.666 323.639 973.106 323.556 973.556 324.127C974.004 324.553 974.552 324.753 975.198 324.729C976.178 324.78 977.29 324.652 978.317 324.673C980.728 324.72 983.215 324.519 985.58 324.57C986.19 324.468 986.76 324.256 987.294 323.933C987.517 324.353 987.741 324.774 987.963 325.195C989.216 325.352 989.313 326.922 990.854 325.205C991.31 327.388 992.62 326.252 994.004 326.844C995.266 327.385 995.467 328.249 996.632 328.852C997.398 329.473 998.219 329.555 999.097 329.1C999.932 329.719 1000.78 330.32 1001.64 330.903C1003.22 331.798 1005.09 332.346 1006.76 333.053C1007.87 333.511 1008.98 333.988 1010.07 334.482C1010.11 335.804 1010.7 336.271 1011.85 335.882C1012.89 336.753 1013.18 336.719 1014.19 338.202C1016.48 341.563 1018.51 344.174 1021.4 347.178C1033.96 360.238 1037.82 378.702 1033.07 395.934ZM1036.93 340.4C1031.26 332.806 1023.23 324.11 1016.02 319.314C1012.36 316.882 1007.23 312.517 1002.76 311.231C1001.7 310.926 1000.6 310.906 999.559 310.586C998.754 310.339 998.316 309.513 997.398 309.364C996.756 309.26 996.685 310.697 996.003 310.565C994.577 310.287 993.673 308.872 992.666 307.987C990.503 311.714 989.329 305.446 986.153 309.66C982.373 303.733 973.493 305.029 967.457 305.328C965.667 305.416 964.826 306.053 963.239 306.525C961.762 306.964 961.616 306.851 960.003 306.839C955.986 306.808 952.42 307.313 948.707 309.077C942.469 312.04 936.743 316.657 930.818 320.228C924.196 324.219 918.227 329.299 913.161 335.136C894.847 356.242 889.95 387.049 904.553 411.517C927.748 450.378 987.579 454.531 1021.48 428.163C1047.67 407.79 1057.64 368.134 1036.93 340.4Z" fill="#D7C2C2"/>
<path fill-rule="evenodd" clip-rule="evenodd" d="M1081.55 -29.1995C1095.88 -19.0185 1112.32 -12.0635 1127.3 -2.89449C1131.05 -0.599495 1142.73 4.1655 1142.61 8.42249C1142.55 10.9115 1139.04 14.0325 1137.5 15.7575C1134.87 18.7125 1132.39 21.6985 1129.96 24.8245C1118.84 39.1395 1108.37 53.5895 1096.31 67.1855C1094.5 69.2305 1089.03 78.9955 1087.26 74.1455C1086.46 71.9465 1087.12 69.4755 1085.04 67.4255C1083.97 66.3695 1079.82 65.7875 1081.03 63.5225C1081.83 63.8845 1082.64 64.2475 1083.44 64.6085C1082.82 62.7985 1082.86 60.8155 1081.93 59.1045C1081.34 58.0415 1080.2 57.5385 1079.81 56.3415C1079.26 54.6875 1080.19 52.7655 1080.03 51.0605C1079.88 49.3605 1079 47.7535 1078.47 46.1495C1075.35 36.6415 1074.24 27.0565 1072.64 17.2465C1071.06 7.5395 1068.6 -1.86351 1067.63 -11.6785C1066.61 -22.0455 1065.36 -32.3915 1063.69 -42.6755C1066.67 -42.2575 1068.96 -39.0205 1071.07 -37.1905C1074.38 -34.3145 1077.97 -31.7375 1081.55 -29.1995ZM1070.31 71.1675C1069.63 70.6305 1069.09 69.9705 1068.71 69.1885C1075.73 65.7085 1071.49 71.6455 1070.31 71.1675ZM1066.04 63.7455C1062.98 64.5895 1060.78 64.7605 1058.42 63.5005C1058.19 63.3815 1058.45 62.4605 1058.05 62.2715C1057.69 62.1075 1057.15 62.3105 1056.85 62.1565C1055.82 61.6335 1054.02 62.7795 1053.85 60.7775C1057.76 59.5815 1061.6 57.3745 1065.73 57.0025C1071.46 56.4865 1071.2 62.3235 1066.04 63.7455ZM1052.62 52.2055C1048.45 53.1825 1045 55.4645 1040.56 54.8685C1036.4 54.3105 1032.78 52.1495 1029.49 49.6595C1037.71 47.3315 1046.34 46.9115 1054.55 44.6595C1057.23 43.9265 1060.74 41.9935 1063.62 42.7725C1066.83 43.6385 1067.03 46.6385 1067.99 49.3685C1062.86 50.2905 1057.7 51.0195 1052.62 52.2055ZM1026.49 40.6215C1022.48 41.5805 1018.38 43.6775 1015.02 40.0585C1014.48 39.4745 1014 40.0575 1014.07 38.2585C1014.13 36.3615 1015.86 35.1395 1017.34 34.4715C1020.82 32.9015 1025.7 33.9165 1029.4 33.6855C1035.3 33.3185 1041.3 32.0925 1047.14 31.1485C1051.18 30.4955 1055.35 29.0455 1059.48 29.3315C1062.67 29.5525 1066.51 32.2695 1061.87 34.2515C1057.64 36.0575 1051.29 35.7805 1046.71 36.5625C1039.93 37.7185 1033.18 39.0235 1026.49 40.6215ZM1022.57 21.7375C1022.83 22.0025 1023.09 22.2675 1023.35 22.5325C1023.31 22.5225 1024.89 21.2415 1025.31 21.2045C1027.34 21.0275 1029.39 21.1675 1031.43 21.0525C1036.13 20.7875 1040.86 19.9695 1045.47 19.0685C1049.23 18.3345 1053.05 17.0695 1056.92 17.3865C1060.27 17.6605 1060.62 18.3465 1060.84 21.5775C1052.29 21.5775 1043.49 21.3975 1035.09 23.2065C1029.62 24.3835 1023.6 27.8895 1020.86 21.5695C1021.43 21.6255 1022 21.6815 1022.57 21.7375ZM1027.91 8.05849C1030.03 9.67249 1035.81 6.98849 1038.35 6.7205C1041.11 6.4285 1043.7 6.1255 1046.38 5.4385C1048.75 4.8285 1056.59 1.7825 1058.41 4.6955C1061.19 9.1585 1049.91 9.97749 1048.12 10.1985C1040.62 11.1255 1032.83 11.9475 1025.53 13.9155C1026.32 11.9635 1027.12 10.0115 1027.91 8.05849ZM1038.21 -7.1005C1038.75 -5.0375 1055.72 -12.6395 1056.03 -7.11449C1056.27 -2.8755 1039.24 -0.763504 1036.18 -1.13551C1036.9 -3.08751 1038.81 -4.8355 1038.21 -7.1005ZM1043.9 -20.0675C1044.26 -24.2285 1044.82 -24.2045 1048.16 -24.5965C1050.7 -24.8955 1054.2 -26.3875 1053.54 -21.8515C1052.97 -17.9675 1043.54 -15.8685 1043.9 -20.0675ZM1049.97 -34.3845C1050.77 -36.6185 1052.58 -33.6115 1052.62 -32.4755C1052.72 -29.4525 1050.43 -30.1065 1048.22 -30.1065C1048.83 -31.5185 1049.42 -32.9465 1049.97 -34.3845ZM1077.9 -51.1535C1077.45 -51.6955 1074.92 -51.9025 1074.2 -52.1655C1072.43 -52.8135 1072.68 -54.1945 1070.42 -52.8325C1070.31 -52.9465 1070.52 -53.9705 1070.4 -54.0175C1070.34 -54.0415 1068.75 -54.6395 1068.24 -54.9695C1067 -55.7655 1065.88 -56.5445 1064.73 -57.5435C1063.52 -58.6045 1062.3 -60.1445 1060.92 -60.9895C1060.33 -61.3455 1059.85 -61.8505 1059.15 -61.9595C1057.32 -62.2415 1057.84 -60.9675 1056.24 -60.7145C1055.26 -60.5585 1054.54 -61.7085 1053.25 -61.2125C1052.14 -60.7845 1051.5 -59.2235 1051 -58.2945C1049.2 -54.9135 1047.81 -51.2745 1046.04 -47.8575C1037.01 -30.3845 1026.76 -13.5745 1018.01 4.0615C1013.8 12.5575 1009.41 21.1125 1006.44 30.1415C1004.31 36.6535 999.48 46.1665 1003.63 52.6735C1006.65 57.4045 1012.7 59.4475 1017.52 61.7335C1024.78 65.1735 1031.47 69.6695 1038.8 73.0045C1047.55 76.9815 1056.05 81.1415 1064.58 85.5825C1068.21 87.4765 1071.5 90.2045 1075.12 91.9985C1077.34 93.0955 1080.76 91.2235 1081.48 93.7385C1084.26 90.3725 1088.76 92.6165 1091.98 90.2465C1093.87 88.8525 1095.25 86.1065 1096.83 84.3895C1099.19 81.8155 1101.76 79.4275 1104.17 76.8985C1113.75 66.8535 1122.6 56.3915 1131.32 45.6025C1139.64 35.2995 1149.37 25.5655 1156.4 14.2875C1159.2 9.8105 1159.7 5.1155 1157.86 0.169502C1156.51 -3.4385 1153.27 -8.88651 1148.64 -6.49751C1150.4 -9.41351 1143.62 -12.5275 1141.57 -13.0975C1141.54 -13.1055 1141.13 -10.8655 1140.56 -10.9215C1140.76 -10.9015 1138.84 -15.8845 1137.99 -16.5235C1135.48 -18.4245 1132.42 -20.6425 1129.68 -22.2075C1127.17 -23.6425 1124.52 -24.3535 1122.08 -25.9595C1119.13 -27.9055 1116.42 -30.2135 1113.46 -32.1465C1110.59 -34.0125 1107.41 -36.2185 1104.24 -37.5015C1101.5 -38.6145 1099.04 -38.8325 1096.57 -40.6565C1093.52 -42.9135 1090.86 -44.4445 1087.34 -45.9995C1084.29 -47.3445 1080.07 -48.5195 1077.9 -51.1535Z" fill="#D7C2C2"/>
<path fill-rule="evenodd" clip-rule="evenodd" d="M793.817 205.617C795.047 205.885 795.85 203.498 796.62 202.893C797.898 201.89 800.112 201.688 801.413 202.698C803.953 204.668 803.078 208.923 806.694 210.033C809.927 211.024 811.45 206.767 814.171 205.707C815.753 205.09 817.49 204.687 816.872 202.475C816.446 200.946 815.19 200.553 813.824 201.14C811.477 202.149 810.68 206.259 807.898 206.332C805.019 206.408 804.707 202.258 803.471 200.45C801.587 197.695 797.714 197.03 795.513 199.664C794.848 200.459 791.474 205.11 793.817 205.617Z" fill="#D7C2C2"/>
<path fill-rule="evenodd" clip-rule="evenodd" d="M793.817 217.783C795.047 218.05 795.85 215.664 796.62 215.059C797.898 214.056 800.112 213.854 801.413 214.863C803.953 216.834 803.078 221.089 806.694 222.198C809.927 223.19 811.45 218.932 814.171 217.872C815.753 217.256 817.49 216.852 816.872 214.641C816.446 213.111 815.19 212.719 813.824 213.306C811.477 214.315 810.68 218.424 807.898 218.498C805.019 218.574 804.707 214.424 803.471 212.616C801.587 209.861 797.714 209.196 795.513 211.83C794.848 212.625 791.474 217.276 793.817 217.783Z" fill="#D7C2C2"/>
</g>
</svg>
