<svg width="118" height="118" viewBox="0 0 118 118" fill="none" xmlns="http://www.w3.org/2000/svg">
<g filter="url(#filter0_d)">
<circle cx="59" cy="55" r="55" fill="white"/>
<path d="M86.625 48.25C86.625 70.125 58.5 88.875 58.5 88.875C58.5 88.875 30.375 70.125 30.375 48.25C30.375 40.7908 33.3382 33.6371 38.6126 28.3626C43.8871 23.0882 51.0408 20.125 58.5 20.125C65.9592 20.125 73.1129 23.0882 78.3874 28.3626C83.6618 33.6371 86.625 40.7908 86.625 48.25Z" stroke="#FF0000" stroke-width="2" stroke-linecap="round" stroke-linejoin="round"/>
<path d="M58.5 57.625C63.6777 57.625 67.875 53.4277 67.875 48.25C67.875 43.0723 63.6777 38.875 58.5 38.875C53.3223 38.875 49.125 43.0723 49.125 48.25C49.125 53.4277 53.3223 57.625 58.5 57.625Z" stroke="#FF0000" stroke-width="2" stroke-linecap="round" stroke-linejoin="round"/>
</g>
<defs>
<filter id="filter0_d" x="0" y="0" width="118" height="118" filterUnits="userSpaceOnUse" color-interpolation-filters="sRGB">
<feFlood flood-opacity="0" result="BackgroundImageFix"/>
<feColorMatrix in="SourceAlpha" type="matrix" values="0 0 0 0 0 0 0 0 0 0 0 0 0 0 0 0 0 0 127 0"/>
<feOffset dy="4"/>
<feGaussianBlur stdDeviation="2"/>
<feColorMatrix type="matrix" values="0 0 0 0 0 0 0 0 0 0 0 0 0 0 0 0 0 0 0.25 0"/>
<feBlend mode="normal" in2="BackgroundImageFix" result="effect1_dropShadow"/>
<feBlend mode="normal" in="SourceGraphic" in2="effect1_dropShadow" result="shape"/>
</filter>
</defs>
</svg>
