<svg width="63" height="62" viewBox="0 0 63 62" fill="none" xmlns="http://www.w3.org/2000/svg">
<path d="M48.2842 17.3016C46.8152 18.3396 45.1887 19.1336 43.4673 19.6528C42.5434 18.5886 41.3156 17.8344 39.9498 17.492C38.5841 17.1497 37.1463 17.2358 35.831 17.7387C34.5157 18.2416 33.3863 19.1371 32.5956 20.304C31.8048 21.4709 31.3909 22.8529 31.4098 24.2631V25.7999C28.7139 25.8699 26.0426 25.271 23.6338 24.0564C21.2249 22.8417 19.1533 21.0492 17.6035 18.8384C17.6035 18.8384 11.4673 32.6692 25.2736 38.8163C22.1143 40.9646 18.3508 42.0418 14.5354 41.8898C28.3417 49.5736 45.2161 41.8898 45.2161 24.217C45.2147 23.789 45.1736 23.362 45.0934 22.9415C46.659 21.3947 47.7639 19.4419 48.2842 17.3016V17.3016Z" stroke="#FF0000" stroke-width="2" stroke-linecap="round" stroke-linejoin="round"/>
<circle cx="31.4098" cy="30.8678" r="28.3678" stroke="#FF0000" stroke-width="5"/>
</svg>
