<svg width="574" height="447" viewBox="0 0 574 447" fill="none" xmlns="http://www.w3.org/2000/svg">
<circle cx="279.5" cy="217.5" r="217.5" fill="#EAFFEB"/>
<g filter="url(#filter0_d)">
<path fill-rule="evenodd" clip-rule="evenodd" d="M329.331 203.927C335.432 208.35 334.461 217.052 332.624 223.374C329.92 232.684 324.533 241.302 318.388 248.731C307.487 261.909 288.981 276.707 271.922 265.137C256.73 254.833 247.148 234.042 243.84 216.53C242.818 211.117 241.456 203.054 246.26 198.985C253.361 192.971 265.887 194.065 274.459 194.839C280.104 195.348 285.552 197.079 291.13 196.267C304.093 194.378 318.519 196.089 329.331 203.927Z" fill="#CE2121"/>
<path fill-rule="evenodd" clip-rule="evenodd" d="M66.5177 272.891C78.8765 288.568 99.8879 291.045 118.549 290.891C129.755 290.799 140.983 289.955 151.969 287.671C157.891 286.44 163.775 284.809 169.497 282.85C173.277 281.555 178.904 280.908 180.513 276.858C184.757 266.171 181.634 252.769 179.887 241.922C178.998 236.405 178.331 230.855 177.466 225.333C176.914 221.801 176.649 217.892 175.168 214.587C173.434 210.715 171.245 211.488 167.578 212.558C162.527 214.033 157.341 214.646 152.147 215.439C139.472 217.374 128.414 221.277 116.895 226.809C105.505 232.278 94.4561 237.677 84.2964 245.283C79.149 249.137 74.7135 253.32 70.5815 258.232C67.3893 262.027 62.6248 267.952 66.5177 272.891ZM120.541 342.524C120.64 344.212 140.009 339.116 142.558 338.544C159.283 334.793 176.338 330.521 192.127 323.743C206.864 317.417 219.849 310.18 231.446 298.94C236.852 293.701 241.714 288.184 246.366 282.309C248.698 279.364 251.884 279.706 254.484 277.215C256.823 274.972 258.617 273.221 257.886 269.869C252.041 271.409 241.249 281.089 235.19 276.201C231.737 273.415 236.527 270.504 238.738 268.89C242.894 265.854 246.449 262.108 249.753 258.177C244.08 259.277 238.799 261.402 233.861 264.359C231.668 265.673 224.149 270.438 222.399 265.896C221.321 263.099 226.419 259.586 228.009 258.039C231.912 254.241 236.126 249.807 238.198 244.701C233.075 243.512 228.245 247.472 224.756 250.697C220.883 254.278 216.135 258.037 212.887 262.163C211.212 264.291 210.847 266.804 209.538 269.1C208.066 271.682 205.71 273.896 203.458 275.807C199.121 279.489 194.047 282.2 188.839 284.443C176.939 289.566 164.184 293.192 151.499 295.736C145.276 296.984 139.206 297.559 132.89 297.771C127.981 297.936 125.809 299.403 123.935 303.926C118.863 316.164 119.784 329.628 120.541 342.524ZM266.206 249.272C269.044 251.927 272.732 253.593 275.698 256.146C278.309 258.393 281.32 260.79 284.233 262.606C287.343 264.545 289.667 263.186 292.468 261.431C295.755 259.373 299.535 258.538 302.921 256.697C314.628 250.325 328.951 234.712 326.765 220.376C325.839 214.3 322.697 208.321 316.993 205.565C311.812 203.061 304.282 201.672 298.739 203.765C295.613 204.945 293.376 207.552 291.373 210.113C289.037 213.1 288.143 212.629 285.764 209.749C281.507 204.596 274.488 200.074 267.549 200.183C264.1 200.238 260.675 200.965 257.568 202.396C257.147 202.59 256.913 203.178 256.49 203.377C255.971 203.621 255.119 203.113 254.758 203.341C253.849 203.917 252.94 205.716 252.416 206.629C250.311 210.291 246.52 217.474 250.34 220.558C250.342 220.559 250.17 224.73 250.223 225.206C250.492 227.694 251.352 229.748 252.461 232.024C255.789 238.86 260.702 244.123 266.206 249.272ZM260.547 307.113C263.235 307.949 266.131 299.524 263.552 298.179C261.093 296.896 258.112 306.358 260.547 307.113ZM302.774 297.04C303.705 300.222 304.098 303.834 306.375 306.424C308.46 303.95 308.665 299.386 306.644 296.843C305.489 295.392 301.755 293.562 302.774 297.04ZM216.738 241.275C216.753 241.356 213.503 242.91 215.089 244.61C217.255 246.932 216.957 242.413 216.738 241.275ZM203.307 215.336C203.344 218.555 210.157 217.778 210.108 214.541C210.048 210.557 203.267 211.925 203.307 215.336ZM211.439 188.441C210.764 185.495 198.915 181.396 199.237 186.531C199.399 189.105 212.869 194.705 211.439 188.441ZM332.917 288.36C334.246 289.956 336.133 290.586 337.725 291.812C339.395 293.096 340.588 294.763 342.046 296.271C346.051 300.412 350.872 303.814 355.192 307.618C363.135 314.609 370.744 322.126 379.551 328.056C395.288 338.652 413.538 344.447 431.655 349.522C433.156 349.942 437.479 351.639 438.964 350.375C440.566 349.012 439.752 344.216 439.678 342.402C439.377 334.967 438.511 327.444 438.604 320.02C438.643 316.971 439.536 312.636 437.945 309.846C436.169 306.73 431.209 305.818 428.14 304.645C418.815 301.081 409.832 295.068 401.594 289.5C391.468 282.654 381.24 275.695 370.819 269.304C360.61 263.043 349.348 258.851 337.959 255.275C337.432 256.383 342.866 259.951 343.487 260.452C346.466 262.85 349.708 265.337 351.92 268.503C353.486 270.744 355.091 275.817 350.768 275.947C348.672 276.01 345.573 273.983 343.673 273.327C340.534 272.244 337.3 271.483 334.016 270.989C336.839 274.097 346.407 279.68 344.666 284.849C342.977 289.865 333.207 284.011 329.844 284.011C330.396 285.76 331.781 286.994 332.917 288.36ZM448.336 302.359C454.592 304.559 461.005 305.811 467.463 307.231C473.618 308.585 479.307 309.605 485.611 308.813C494.315 307.718 503.947 304.113 505.051 294.222C506.359 282.504 498.083 271.736 490.977 263.328C482.328 253.099 472.617 243.955 462.091 235.674C451.578 227.402 440.231 220.109 428.342 213.952C419.298 209.268 409.083 206.424 399.52 202.909C397.701 202.241 392.669 199.891 390.967 201.838C389.592 203.413 391.464 206.036 392.09 207.498C393.313 210.349 393.482 213.218 393.797 216.279C395.207 229.947 396.904 243.611 397.685 257.338C397.903 261.164 398.286 265.166 398.063 268.994C397.939 271.114 396.836 273.815 397.571 275.885C398.983 279.864 405.452 282.498 408.88 284.276C415.017 287.458 421.516 289.833 427.716 292.877C434.526 296.22 441.155 299.833 448.336 302.359ZM361.565 213.548C359.848 213.313 357.275 212.845 355.744 213.957C353.748 215.408 354.271 217.427 356.115 218.479C357.572 219.311 360.98 219.539 362.419 218.784C364.87 217.499 364.455 213.946 361.565 213.548ZM352.054 245.198C353.442 247.509 358.514 249.025 358.072 244.712C357.693 241.018 349.498 240.942 352.054 245.198ZM353.937 180.083C351.706 180.947 347.657 181.687 346.996 184.557C346.38 187.228 348.911 187.051 350.737 186.316C352.24 185.713 358.932 180.037 353.937 180.083ZM4.39636 281.976C5.69934 276.905 4.70703 271.292 5.42603 266.098C6.1236 261.064 7.37885 256.437 9.17993 251.693C13.1682 241.189 17.7372 231.734 24.2018 222.515C36.3771 205.155 50.5028 189.864 67.5601 177.184C84.3997 164.667 103.047 154.494 122.8 147.364C143.746 139.803 164.83 137.171 186.919 135.722C193.516 135.289 200.106 134.776 206.665 133.943C211.459 133.334 217.468 132.584 222.208 134.053C225.186 134.975 226.849 137.572 223.605 139.276C221.305 140.485 218.294 140.629 215.754 140.95C218.823 150.698 223.815 160.479 231.727 167.191C239.451 173.744 249.787 175.991 259.535 177.653C264.822 178.553 270.741 179.25 276.109 178.862C279.503 178.617 282.151 177.045 283.52 180.541C284.471 182.97 284.92 185.635 286.173 181.968C287.655 177.632 288.382 177.66 292.991 176.428C302.418 173.91 313.224 171.612 321.448 166.167C329.98 160.516 332.947 151.376 337.71 142.865C338.888 140.761 342.441 136.503 340.625 134.093C338.965 131.889 333.566 132.108 331.093 131.878C328.484 131.636 325.859 131.625 323.242 131.524C321.725 131.465 318.674 132.087 319.284 129.822C320.205 126.407 330.068 126.845 332.517 126.79C337.072 126.687 341.689 126.793 346.221 127.294C368.691 129.779 391.363 134.374 413.107 140.501C455.293 152.388 496.151 174.293 526.939 205.85C556.491 236.141 565.854 286.549 547.686 325.226C538.245 345.327 517.754 353.585 497.892 360.254C487.415 363.771 476.321 366.522 465.184 365.859C459.84 365.54 454.769 364.101 449.556 363.017C447.283 362.544 444.696 361.79 442.361 361.98C440.594 362.124 438.896 363.747 437.238 362.885C436.061 362.273 435.55 360.516 434.112 359.768C432.385 358.87 430.292 358.546 428.427 358.093C423.244 356.834 418.225 354.792 413.159 353.118C407.92 351.387 402.976 349.157 397.95 346.903C395.411 345.764 389.538 341.135 387.884 344.519C387.13 346.064 387.451 349.043 387.267 350.663C386.945 353.496 386.567 356.323 386.154 359.144C385.244 365.355 384.154 371.539 383.037 377.717C381.02 388.863 378.422 399.533 374.078 410.017C370.61 418.389 367.564 427.877 361.124 434.537C358.312 437.444 354.475 438.752 350.443 437.839C345.855 436.799 343.572 432.632 340.788 429.263C334.661 421.85 324.545 416.169 315.205 414.124C303.767 411.62 292.625 415.283 281.707 418.396C270.159 421.689 258.402 424.826 247.067 428.785C236.504 432.474 225.099 437.922 213.643 437.448C203.654 437.035 194.323 428.904 187.118 422.707C179.882 416.483 170.835 407.369 160.431 408.102C155.264 408.466 150.556 410.958 145.524 411.972C139.999 413.084 134.121 413.242 128.503 413.657C121.529 414.171 105.927 412.353 103.348 403.963C102.965 402.719 102.962 400.156 104.606 399.658C106.118 399.2 106.89 400.968 108.323 400.887C111.237 400.723 113.514 395.642 115.115 393.675C121.575 385.734 130.438 379.811 137.687 372.637C145.874 364.537 152.862 354.723 159.031 345.044C156.242 344.32 153.233 345.523 150.535 346.095C147.255 346.789 144.06 347.629 140.828 348.519C137.266 349.5 133.654 350.174 130.039 350.921C127.342 351.478 123.762 351.646 121.328 352.999C119.202 354.18 118.016 355.449 115.378 355.791C112.695 356.139 109.94 355.846 107.245 355.828C99.9547 355.779 92.6797 355.643 85.4238 354.872C59.7854 352.149 32.6081 341.304 17.1913 319.782C12.9981 313.928 9.62006 307.443 7.48529 300.562C5.81927 295.189 2.94647 287.617 4.39636 281.976Z" fill="black"/>
<path fill-rule="evenodd" clip-rule="evenodd" d="M244.866 34.0056C238.128 34.101 231.813 36.0989 225.535 38.3702C220.013 40.3674 214.128 42.2151 209.663 46.2015C201.634 53.3723 199.542 65.2455 198.228 75.4038C196.589 88.0797 202.044 98.7147 206.634 110.183C210.928 120.908 218.808 129.597 228.175 136.218C233.082 139.686 238.506 141.779 244.18 143.615C249.944 145.48 255.527 147.977 261.694 147.967C271.059 147.954 283.049 143.506 287.038 134.279C288.854 130.078 287.086 129.324 283.451 131.607C278.178 134.919 273.096 138.494 266.934 139.963C254.985 142.814 240.674 138.398 230.196 132.571C219.722 126.746 212.691 117.995 207.991 107.098C203.25 96.1056 201.408 85.2735 203.236 73.4225C204.785 63.3795 207.868 54.206 216.918 48.7541C236.456 36.9866 262.778 37.9347 280.153 53.2277C282.536 55.3242 284.891 57.3642 287.346 59.3661C288.907 60.6385 290.745 62.1652 290.518 64.3658C290.325 66.2501 286.307 73.5155 291.145 71.2839C295.067 69.4743 297.198 65.937 301.949 65.4991C307.006 65.0326 313.037 68.9172 314.55 73.8064C315.993 78.4714 313.42 84.8539 309.39 87.5297C306.895 89.1867 304.149 88.9308 301.315 88.8641C299.908 88.8307 295.993 88.3737 295.062 89.8607C293.415 92.4904 299.225 95.2545 301.1 95.8362C305.663 97.2516 311.055 95.5859 313.678 91.5129C316.345 87.3724 318.17 82.5802 318.537 77.6473C318.888 72.921 317.815 68.136 315.027 64.2553C312.062 60.1283 306.016 55.5014 300.597 56.9351C298.245 57.5573 296.355 59.9876 294.046 60.4494C292.589 60.7402 293.202 60.9485 291.995 59.8684C291.229 59.1834 290.505 57.9189 289.797 57.1067C285.73 52.4369 281.708 47.4532 276.73 43.7156C267.804 37.0136 255.94 33.8482 244.866 34.0056ZM269.55 126.59C268.494 124.115 266.554 128.53 265.981 129.268C264.846 130.728 262.177 131.864 262.292 134.018C262.482 137.574 267.329 136.914 268.945 135.06C270.784 132.948 270.591 129.034 269.55 126.59ZM235.117 109.755C232.502 113.829 235.689 118.227 237.756 121.834C239.733 125.282 241.569 129.18 243.87 132.421C247.689 137.803 256 131.981 256.246 126.45C256.435 122.215 253.436 124.059 251.51 125.64C249.529 127.269 248.59 127.674 246.512 125.895C242.334 122.315 240.456 116.328 237.567 111.795C236.995 110.896 235.957 110.355 235.117 109.755ZM227.664 111.065C226.989 113.035 228.404 118.256 224.472 117.734C222.299 117.446 221.836 114.329 220.693 112.968C216.852 108.394 218.03 117.045 219.034 119.21C221.246 123.983 227.438 127.271 230.509 121.217C231.651 118.964 231.646 116.122 231.066 113.701C230.75 112.383 228.908 107.426 227.664 111.065ZM262.726 101.733C263.074 104.032 265.235 108.612 262.597 110.257C260.275 111.705 256.232 108.561 254.444 107.248C252.587 105.884 248.377 101.97 248.212 106.84C248.128 109.323 250.613 112.301 252.386 113.731C256.169 116.781 264.03 119.517 266.817 113.776C268.336 110.649 267.505 106.197 266.501 103.046C265.688 100.492 261.886 96.1793 262.726 101.733ZM213.108 89.1453C211.569 90.9331 207.92 94.9385 209.904 97.4845C212.223 100.46 215.993 95.0004 217.479 93.4807C218.817 92.1117 221.634 88.2134 220.433 86.1456C218.445 82.7239 214.46 87.5757 213.108 89.1453ZM237.306 81.4472C232.274 84.7255 238.89 87.0861 241.756 87.3796C245.226 87.7334 249.661 87.9682 252.847 86.266C257.363 83.853 255.858 80.2082 251.481 79.3357C246.992 78.4417 241.211 78.9026 237.306 81.4472ZM302.727 71.0109C299.026 71.731 294.799 72.6681 293.539 76.7025C292.237 80.8721 294.107 82.2559 297.887 81.3172C301.384 80.4485 306.608 79.5742 308.585 76.1581C310.948 72.0767 306.158 70.344 302.727 71.0109Z" fill="black"/>
<path fill-rule="evenodd" clip-rule="evenodd" d="M506.348 160.604C507.59 164.615 513.876 167.275 517.01 169.713C527.974 178.242 538.688 187.123 548.6 196.857C553.744 201.91 557.638 208.022 562.1 213.641C563.188 215.012 565.117 218.084 567.252 217.796C569.594 217.48 570.067 213.446 569.993 211.684C569.737 205.676 564.25 199.874 560.337 195.737C555.935 191.085 551.229 186.552 546.423 182.316C541.131 177.653 535.389 173.645 529.537 169.721C523.791 165.867 518.282 161.416 512.306 157.925C509.491 156.282 504.816 155.656 506.348 160.604ZM123.099 122.516C118.523 122.661 114.057 124.162 109.741 125.555C100.247 128.621 91.2054 132.874 82.2891 137.319C66.6572 145.111 51.6141 154.538 37.825 165.257C34.9424 167.497 31.9873 169.312 28.853 171.144C26.8468 172.317 23.9865 173.749 23.2137 176.14C21.2505 182.22 31.1595 176.118 32.5657 175.245L34.5438 174.019C63.8827 155.835 93.1877 138.168 126.374 127.74C128.142 127.185 128.692 125.608 127.764 124.045C126.759 122.351 124.8 122.463 123.099 122.516ZM507.683 135.24C507.896 137.091 509.992 137.512 511.406 138.106C516.682 140.322 522.09 142.212 527.352 144.465C537.118 148.646 546.086 154.714 556.28 157.887C558.609 158.614 558.953 156.263 558.329 154.663C557.635 152.878 555.548 151.624 554.04 150.591C549.687 147.609 544.75 145.466 539.917 143.395C535.125 141.34 530.191 139.785 525.278 138.063C520.711 136.461 515.411 133.481 510.507 133.261L510.293 133.251C508.732 133.172 507.436 133.066 507.683 135.24ZM114.77 107.12C119.436 105.807 115.027 102.854 112.255 103.061C109.161 103.293 106.171 104.753 103.238 105.634C94.269 108.327 85.9555 111.272 77.5768 115.452C76.3272 116.076 70.8222 119.035 74.4635 120.345C76.9873 121.253 82.8813 117.358 85.048 116.424C94.5697 112.319 104.801 109.923 114.77 107.12Z" fill="black"/>
<path fill-rule="evenodd" clip-rule="evenodd" d="M300.764 116.681C300.18 114.97 292.967 96.2644 295.79 95.7003C298.781 95.1022 302.779 105.955 303.646 107.916C306.85 115.157 308.747 122.928 310.234 130.695C311.269 136.104 312.179 141.645 311.816 147.174C311.538 151.424 309.782 152.067 306.89 154.671C306.89 141.764 304.929 128.898 300.764 116.681Z" fill="black"/>
</g>
<defs>
<filter id="filter0_d" x="0.000244141" y="34" width="574" height="412.126" filterUnits="userSpaceOnUse" color-interpolation-filters="sRGB">
<feFlood flood-opacity="0" result="BackgroundImageFix"/>
<feColorMatrix in="SourceAlpha" type="matrix" values="0 0 0 0 0 0 0 0 0 0 0 0 0 0 0 0 0 0 127 0"/>
<feOffset dy="4"/>
<feGaussianBlur stdDeviation="2"/>
<feColorMatrix type="matrix" values="0 0 0 0 0 0 0 0 0 0 0 0 0 0 0 0 0 0 0.25 0"/>
<feBlend mode="normal" in2="BackgroundImageFix" result="effect1_dropShadow"/>
<feBlend mode="normal" in="SourceGraphic" in2="effect1_dropShadow" result="shape"/>
</filter>
</defs>
</svg>
